BenchNine-Bold.ufo
<glyph name="quotedbl" format="1">
  <advance width="533"/>
  <unicode hex="0022"/>
  <outline>
    <contour>
      <point x="130" y="729" type="curve" smooth="yes"/>
      <point x="156" y="729" type="line" smooth="yes"/>
      <point x="171" y="729"/>
      <point x="176" y="759"/>
      <point x="179" y="799" type="curve" smooth="yes"/>
      <point x="216" y="1428" type="line" smooth="yes"/>
      <point x="218" y="1467"/>
      <point x="207" y="1502"/>
      <point x="192" y="1502" type="curve" smooth="yes"/>
      <point x="94" y="1502" type="line" smooth="yes"/>
      <point x="79" y="1502"/>
      <point x="66" y="1468"/>
      <point x="69" y="1428" type="curve" smooth="yes"/>
      <point x="107" y="799" type="line" smooth="yes"/>
      <point x="109" y="759"/>
      <point x="116" y="729"/>
    </contour>
    <contour>
      <point x="383" y="729" type="curve" smooth="yes"/>
      <point x="409" y="729" type="line" smooth="yes"/>
      <point x="424" y="729"/>
      <point x="429" y="759"/>
      <point x="431" y="799" type="curve" smooth="yes"/>
      <point x="468" y="1428" type="line" smooth="yes"/>
      <point x="471" y="1467"/>
      <point x="459" y="1502"/>
      <point x="445" y="1502" type="curve" smooth="yes"/>
      <point x="346" y="1502" type="line" smooth="yes"/>
      <point x="331" y="1502"/>
      <point x="319" y="1468"/>
      <point x="321" y="1428" type="curve" smooth="yes"/>
      <point x="360" y="799" type="line" smooth="yes"/>
      <point x="362" y="759"/>
      <point x="368" y="729"/>
    </contour>
  </outline>
</glyph>
<glyph name="A" format="1">
  <advance width="822"/>
  <unicode hex="0041"/>
  <outline>
    <contour>
      <point x="68" y="0" type="curve" smooth="yes"/>
      <point x="68" y="0"/>
      <point x="194" y="0"/>
      <point x="196" y="0" type="curve" smooth="yes"/>
      <point x="210" y="0"/>
      <point x="219" y="6"/>
      <point x="224" y="42" type="curve" smooth="yes"/>
      <point x="266" y="295" type="line"/>
      <point x="268" y="308"/>
      <point x="270" y="318"/>
      <point x="277" y="318" type="curve"/>
      <point x="519" y="318" type="line"/>
      <point x="526" y="318"/>
      <point x="528" y="309"/>
      <point x="530" y="296" type="curve"/>
      <point x="567" y="41" type="line" smooth="yes"/>
      <point x="573" y="5"/>
      <point x="585" y="0"/>
      <point x="598" y="0" type="curve" smooth="yes"/>
      <point x="600" y="0"/>
      <point x="763" y="0"/>
      <point x="763" y="0" type="curve" smooth="yes"/>
      <point x="773" y="0"/>
      <point x="780" y="5"/>
      <point x="780" y="28" type="curve" smooth="yes"/>
      <point x="780" y="36"/>
      <point x="777" y="54"/>
      <point x="776" y="63" type="curve" smooth="yes"/>
      <point x="555" y="1388" type="line" smooth="yes"/>
      <point x="548" y="1429"/>
      <point x="535" y="1437"/>
      <point x="519" y="1438" type="curve"/>
      <point x="316" y="1438" type="line"/>
      <point x="300" y="1437"/>
      <point x="286" y="1429"/>
      <point x="279" y="1388" type="curve" smooth="yes"/>
      <point x="54" y="63" type="line" smooth="yes"/>
      <point x="52" y="54"/>
      <point x="53" y="37"/>
      <point x="53" y="29" type="curve" smooth="yes"/>
      <point x="53" y="5"/>
      <point x="59" y="0"/>
    </contour>
    <contour>
      <point x="306" y="443" type="line"/>
      <point x="294" y="443"/>
      <point x="291" y="453"/>
      <point x="291" y="462" type="curve" smooth="yes"/>
      <point x="291" y="464"/>
      <point x="291" y="467"/>
      <point x="292" y="471" type="curve" smooth="yes"/>
      <point x="406" y="1218" type="line"/>
      <point x="407" y="1222"/>
      <point x="408" y="1224"/>
      <point x="410" y="1224" type="curve"/>
      <point x="411" y="1224"/>
      <point x="412" y="1222"/>
      <point x="413" y="1217" type="curve" smooth="yes"/>
      <point x="515" y="470" type="line"/>
      <point x="517" y="467"/>
      <point x="517" y="464"/>
      <point x="517" y="461" type="curve" smooth="yes"/>
      <point x="517" y="452"/>
      <point x="515" y="443"/>
      <point x="510" y="443" type="curve" smooth="yes"/>
    </contour>
    <contour>
      <point x="411" y="1438" type="move" name="top"/>
    </contour>
    <contour>
      <point x="739" y="10" type="move" name="ogonek"/>
    </contour>
  </outline>
</glyph>
<glyph name="K" format="1">
  <advance width="814"/>
  <unicode hex="004B"/>
  <outline>
    <contour>
      <point x="141" y="0" type="curve" smooth="yes"/>
      <point x="287" y="0" type="line" smooth="yes"/>
      <point x="302" y="0"/>
      <point x="314" y="9"/>
      <point x="314" y="52" type="curve" smooth="yes"/>
      <point x="314" y="678" type="line"/>
      <point x="578" y="52" type="line" smooth="yes"/>
      <point x="594" y="10"/>
      <point x="608" y="0"/>
      <point x="625" y="0" type="curve" smooth="yes"/>
      <point x="771" y="0" type="line" smooth="yes"/>
      <point x="783" y="0"/>
      <point x="791" y="21"/>
      <point x="777" y="55" type="curve" smooth="yes"/>
      <point x="519" y="705" type="line" smooth="yes"/>
      <point x="516" y="716"/>
      <point x="515" y="725"/>
      <point x="515" y="733" type="curve" smooth="yes"/>
      <point x="515" y="751"/>
      <point x="520" y="763"/>
      <point x="522" y="770" type="curve" smooth="yes"/>
      <point x="764" y="1386" type="line" smooth="yes"/>
      <point x="774" y="1413"/>
      <point x="774" y="1438"/>
      <point x="749" y="1438" type="curve" smooth="yes"/>
      <point x="601" y="1438" type="line" smooth="yes"/>
      <point x="584" y="1438"/>
      <point x="570" y="1421"/>
      <point x="558" y="1387" type="curve"/>
      <point x="313" y="725" type="line"/>
      <point x="313" y="1384" type="line" smooth="yes"/>
      <point x="313" y="1427"/>
      <point x="302" y="1438"/>
      <point x="287" y="1438" type="curve" smooth="yes"/>
      <point x="141" y="1438" type="line" smooth="yes"/>
      <point x="126" y="1438"/>
      <point x="116" y="1427"/>
      <point x="116" y="1384" type="curve" smooth="yes"/>
      <point x="116" y="54" type="line" smooth="yes"/>
      <point x="116" y="11"/>
      <point x="126" y="0"/>
    </contour>
    <contour>
      <point x="407" y="1438" type="move" name="top"/>
    </contour>
    <contour>
      <point x="407" y="0" type="move" name="bottom"/>
    </contour>
  </outline>
</glyph>
<glyph name="V" format="1">
  <advance width="800"/>
  <unicode hex="0056"/>
  <outline>
    <contour>
      <point x="332" y="0" type="curve"/>
      <point x="479" y="0" type="line"/>
      <point x="496" y="1"/>
      <point x="509" y="23"/>
      <point x="516" y="64" type="curve" smooth="yes"/>
      <point x="755" y="1371" type="line" smooth="yes"/>
      <point x="761" y="1406"/>
      <point x="756" y="1438"/>
      <point x="742" y="1438" type="curve" smooth="yes"/>
      <point x="621" y="1438" type="line" smooth="yes"/>
      <point x="604" y="1438"/>
      <point x="591" y="1414"/>
      <point x="584" y="1373" type="curve" smooth="yes"/>
      <point x="420" y="415" type="line"/>
      <point x="243" y="1373" type="line" smooth="yes"/>
      <point x="235" y="1414"/>
      <point x="222" y="1438"/>
      <point x="206" y="1438" type="curve" smooth="yes"/>
      <point x="59" y="1438" type="line" smooth="yes"/>
      <point x="46" y="1438"/>
      <point x="39" y="1406"/>
      <point x="45" y="1371" type="curve" smooth="yes"/>
      <point x="295" y="64" type="line"/>
      <point x="303" y="23"/>
      <point x="317" y="1"/>
    </contour>
  </outline>
</glyph>
<glyph name="W" format="1">
  <advance width="1130"/>
  <unicode hex="0057"/>
  <outline>
    <contour>
      <point x="272" y="0" type="curve"/>
      <point x="382" y="0" type="line"/>
      <point x="396" y="3"/>
      <point x="409" y="29"/>
      <point x="414" y="69" type="curve" smooth="yes"/>
      <point x="559" y="1003" type="line"/>
      <point x="709" y="70" type="line" smooth="yes"/>
      <point x="715" y="28"/>
      <point x="729" y="1"/>
      <point x="745" y="0" type="curve"/>
      <point x="867" y="0" type="line"/>
      <point x="882" y="1"/>
      <point x="895" y="27"/>
      <point x="901" y="69" type="curve" smooth="yes"/>
      <point x="1078" y="1369" type="line"/>
      <point x="1085" y="1406"/>
      <point x="1078" y="1438"/>
      <point x="1065" y="1438" type="curve" smooth="yes"/>
      <point x="952" y="1438" type="line" smooth="yes"/>
      <point x="937" y="1438"/>
      <point x="923" y="1411"/>
      <point x="917" y="1369" type="curve" smooth="yes"/>
      <point x="805" y="489" type="line"/>
      <point x="662" y="1365" type="line" smooth="yes"/>
      <point x="656" y="1406"/>
      <point x="642" y="1427"/>
      <point x="627" y="1429" type="curve" smooth="yes"/>
      <point x="519" y="1429" type="line" smooth="yes"/>
      <point x="504" y="1429"/>
      <point x="489" y="1408"/>
      <point x="482" y="1365" type="curve" smooth="yes"/>
      <point x="347" y="509" type="line"/>
      <point x="236" y="1368" type="line" smooth="yes"/>
      <point x="230" y="1411"/>
      <point x="216" y="1438"/>
      <point x="200" y="1438" type="curve" smooth="yes"/>
      <point x="69" y="1438" type="line" smooth="yes"/>
      <point x="55" y="1438"/>
      <point x="49" y="1406"/>
      <point x="55" y="1369" type="curve"/>
      <point x="236" y="69" type="line" smooth="yes"/>
      <point x="242" y="27"/>
      <point x="257" y="1"/>
    </contour>
    <contour>
      <point x="565" y="1438" type="move" name="top"/>
    </contour>
  </outline>
</glyph>
<glyph name="asciicircum" format="1">
  <advance width="1030"/>
  <unicode hex="005E"/>
  <outline>
    <contour>
      <point x="118" y="351" type="curve" smooth="yes"/>
      <point x="195" y="351" type="line" smooth="yes"/>
      <point x="231" y="351"/>
      <point x="246" y="365"/>
      <point x="263" y="420" type="curve" smooth="yes"/>
      <point x="492" y="1100" type="line" smooth="yes"/>
      <point x="500" y="1126"/>
      <point x="504" y="1131"/>
      <point x="513" y="1131" type="curve" smooth="yes"/>
      <point x="522" y="1131"/>
      <point x="526" y="1126"/>
      <point x="534" y="1100" type="curve" smooth="yes"/>
      <point x="772" y="420" type="line" smooth="yes"/>
      <point x="789" y="365"/>
      <point x="808" y="351"/>
      <point x="834" y="351" type="curve" smooth="yes"/>
      <point x="912" y="351" type="line" smooth="yes"/>
      <point x="948" y="351"/>
      <point x="944" y="389"/>
      <point x="933" y="419" type="curve" smooth="yes"/>
      <point x="616" y="1289" type="line"/>
      <point x="598" y="1332"/>
      <point x="586" y="1357"/>
      <point x="539" y="1357" type="curve" smooth="yes"/>
      <point x="488" y="1357" type="line" smooth="yes"/>
      <point x="441" y="1357"/>
      <point x="426" y="1332"/>
      <point x="409" y="1290" type="curve"/>
      <point x="98" y="418" type="line" smooth="yes"/>
      <point x="86" y="386"/>
      <point x="83" y="351"/>
    </contour>
  </outline>
</glyph>
<glyph name="c" format="1">
  <advance width="582"/>
  <unicode hex="0063"/>
  <outline>
    <contour>
      <point x="395" y="-11" type="curve" smooth="yes"/>
      <point x="437" y="-10"/>
      <point x="481" y="-2"/>
      <point x="511" y="7" type="curve"/>
      <point x="517" y="9"/>
      <point x="524" y="19"/>
      <point x="524" y="28" type="curve"/>
      <point x="524" y="127" type="line"/>
      <point x="524" y="135"/>
      <point x="517" y="147"/>
      <point x="511" y="148" type="curve"/>
      <point x="485" y="140"/>
      <point x="451" y="132"/>
      <point x="419" y="132" type="curve" smooth="yes"/>
      <point x="328" y="132"/>
      <point x="255" y="151"/>
      <point x="255" y="509" type="curve" smooth="yes"/>
      <point x="255" y="853"/>
      <point x="337" y="876"/>
      <point x="419" y="876" type="curve" smooth="yes"/>
      <point x="454" y="876"/>
      <point x="484" y="866"/>
      <point x="511" y="858" type="curve"/>
      <point x="517" y="856"/>
      <point x="524" y="865"/>
      <point x="523" y="874" type="curve"/>
      <point x="523" y="980" type="line"/>
      <point x="523" y="985"/>
      <point x="517" y="994"/>
      <point x="511" y="995" type="curve"/>
      <point x="476" y="1006"/>
      <point x="422" y="1018"/>
      <point x="377" y="1018" type="curve" smooth="yes"/>
      <point x="231" y="1018"/>
      <point x="81" y="942"/>
      <point x="81" y="509" type="curve" smooth="yes"/>
      <point x="81" y="43"/>
      <point x="243" y="-11"/>
    </contour>
    <contour>
      <point x="291" y="1006" type="move" name="top"/>
    </contour>
    <contour>
      <point x="291" y="0" type="move" name="bottom"/>
    </contour>
  </outline>
</glyph>
<glyph name="d" format="1">
  <advance width="789"/>
  <unicode hex="0064"/>
  <outline>
    <contour>
      <point x="342" y="-11" type="curve" smooth="yes"/>
      <point x="435" y="-11"/>
      <point x="520" y="25"/>
      <point x="559" y="204" type="curve" smooth="yes"/>
      <point x="562" y="211"/>
      <point x="564" y="214"/>
      <point x="566" y="216" type="curve"/>
      <point x="568" y="215"/>
      <point x="571" y="210"/>
      <point x="572" y="201" type="curve" smooth="yes"/>
      <point x="573" y="189"/>
      <point x="595" y="77"/>
      <point x="598" y="60" type="curve" smooth="yes"/>
      <point x="605" y="24"/>
      <point x="618" y="0"/>
      <point x="632" y="0" type="curve" smooth="yes"/>
      <point x="661" y="0" type="line" smooth="yes"/>
      <point x="676" y="0"/>
      <point x="685" y="24"/>
      <point x="685" y="67" type="curve" smooth="yes"/>
      <point x="685" y="1368" type="line" smooth="yes"/>
      <point x="685" y="1411"/>
      <point x="674" y="1428"/>
      <point x="660" y="1428" type="curve" smooth="yes"/>
      <point x="536" y="1428" type="line" smooth="yes"/>
      <point x="521" y="1428"/>
      <point x="511" y="1411"/>
      <point x="511" y="1368" type="curve" smooth="yes"/>
      <point x="511" y="881" type="line"/>
      <point x="511" y="875"/>
      <point x="509" y="868"/>
      <point x="507" y="868" type="curve"/>
      <point x="505" y="869"/>
      <point x="502" y="874"/>
      <point x="499" y="878" type="curve" smooth="yes"/>
      <point x="462" y="976"/>
      <point x="407" y="1018"/>
      <point x="335" y="1018" type="curve" smooth="yes"/>
      <point x="211" y="1018"/>
      <point x="79" y="929"/>
      <point x="79" y="500" type="curve" smooth="yes"/>
      <point x="79" y="69"/>
      <point x="220" y="-11"/>
    </contour>
    <contour>
      <point x="384" y="125" type="curve" smooth="yes"/>
      <point x="304" y="123"/>
      <point x="254" y="186"/>
      <point x="254" y="511" type="curve" smooth="yes"/>
      <point x="254" y="819"/>
      <point x="308" y="883"/>
      <point x="383" y="882" type="curve" smooth="yes"/>
      <point x="459" y="881"/>
      <point x="510" y="770"/>
      <point x="510" y="511" type="curve" smooth="yes"/>
      <point x="510" y="240"/>
      <point x="461" y="126"/>
    </contour>
    <contour>
      <point x="395" y="503" type="move" name="center"/>
    </contour>
  </outline>
</glyph>
<glyph name="r" format="1">
  <advance width="496"/>
  <unicode hex="0072"/>
  <outline>
    <contour>
      <point x="129" y="0" type="curve" smooth="yes"/>
      <point x="241" y="0" type="line" smooth="yes"/>
      <point x="255" y="0"/>
      <point x="266" y="26"/>
      <point x="266" y="69" type="curve" smooth="yes"/>
      <point x="266" y="519" type="line" smooth="yes"/>
      <point x="266" y="632"/>
      <point x="295" y="795"/>
      <point x="375" y="818" type="curve" smooth="yes"/>
      <point x="385" y="822"/>
      <point x="427" y="824"/>
      <point x="428" y="824" type="curve" smooth="yes"/>
      <point x="441" y="824"/>
      <point x="446" y="829"/>
      <point x="446" y="862" type="curve" smooth="yes"/>
      <point x="446" y="962" type="line" smooth="yes"/>
      <point x="446" y="997"/>
      <point x="438" y="1016"/>
      <point x="402" y="1016" type="curve" smooth="yes"/>
      <point x="386" y="1016" type="line" smooth="yes"/>
      <point x="330" y="1014"/>
      <point x="269" y="955"/>
      <point x="227" y="806" type="curve" smooth="yes"/>
      <point x="226" y="799"/>
      <point x="224" y="791"/>
      <point x="221" y="791" type="curve" smooth="yes"/>
      <point x="218" y="791"/>
      <point x="215" y="798"/>
      <point x="214" y="806" type="curve" smooth="yes"/>
      <point x="191" y="942" type="line"/>
      <point x="183" y="985"/>
      <point x="177" y="1006"/>
      <point x="161" y="1006" type="curve" smooth="yes"/>
      <point x="123" y="1006" type="line" smooth="yes"/>
      <point x="109" y="1006"/>
      <point x="104" y="972"/>
      <point x="104" y="929" type="curve" smooth="yes"/>
      <point x="104" y="69" type="line" smooth="yes"/>
      <point x="104" y="26"/>
      <point x="115" y="0"/>
    </contour>
    <contour>
      <point x="248" y="1006" type="move" name="top"/>
    </contour>
    <contour>
      <point x="248" y="0" type="move" name="bottom"/>
    </contour>
  </outline>
</glyph>
<glyph name="x" format="1">
  <advance width="677"/>
  <unicode hex="0078"/>
  <outline>
    <contour>
      <point x="59" y="0" type="curve" smooth="yes"/>
      <point x="181" y="0" type="line" smooth="yes"/>
      <point x="196" y="0"/>
      <point x="213" y="18"/>
      <point x="226" y="47" type="curve"/>
      <point x="235" y="67"/>
      <point x="306" y="247"/>
      <point x="326" y="297" type="curve"/>
      <point x="331" y="303"/>
      <point x="334" y="306"/>
      <point x="336" y="306" type="curve" smooth="yes"/>
      <point x="340" y="306"/>
      <point x="343" y="302"/>
      <point x="345" y="296" type="curve" smooth="yes"/>
      <point x="367" y="245"/>
      <point x="429" y="67"/>
      <point x="437" y="50" type="curve"/>
      <point x="449" y="20"/>
      <point x="466" y="0"/>
      <point x="483" y="0" type="curve" smooth="yes"/>
      <point x="629" y="0" type="line" smooth="yes"/>
      <point x="635" y="0"/>
      <point x="638" y="13"/>
      <point x="638" y="27" type="curve" smooth="yes"/>
      <point x="638" y="35"/>
      <point x="637" y="43"/>
      <point x="635" y="48" type="curve" smooth="yes"/>
      <point x="611" y="108"/>
      <point x="452" y="486"/>
      <point x="433" y="530" type="curve"/>
      <point x="431" y="535"/>
      <point x="429" y="543"/>
      <point x="429" y="549" type="curve" smooth="yes"/>
      <point x="429" y="557"/>
      <point x="431" y="562"/>
      <point x="434" y="567" type="curve" smooth="yes"/>
      <point x="457" y="624"/>
      <point x="592" y="920"/>
      <point x="607" y="960" type="curve"/>
      <point x="610" y="966"/>
      <point x="611" y="973"/>
      <point x="611" y="981" type="curve" smooth="yes"/>
      <point x="611" y="993"/>
      <point x="608" y="1006"/>
      <point x="602" y="1006" type="curve" smooth="yes"/>
      <point x="489" y="1006" type="line" smooth="yes"/>
      <point x="473" y="1006"/>
      <point x="458" y="987"/>
      <point x="445" y="958" type="curve" smooth="yes"/>
      <point x="437" y="939"/>
      <point x="369" y="776"/>
      <point x="350" y="730" type="curve" smooth="yes"/>
      <point x="348" y="725"/>
      <point x="345" y="723"/>
      <point x="342" y="723" type="curve" smooth="yes"/>
      <point x="340" y="723"/>
      <point x="337" y="725"/>
      <point x="335" y="731" type="curve" smooth="yes"/>
      <point x="309" y="788"/>
      <point x="253" y="936"/>
      <point x="244" y="956" type="curve" smooth="yes"/>
      <point x="232" y="986"/>
      <point x="217" y="1006"/>
      <point x="201" y="1006" type="curve" smooth="yes"/>
      <point x="56" y="1006" type="line" smooth="yes"/>
      <point x="50" y="1006"/>
      <point x="46" y="993"/>
      <point x="46" y="979" type="curve" smooth="yes"/>
      <point x="46" y="971"/>
      <point x="48" y="963"/>
      <point x="50" y="958" type="curve" smooth="yes"/>
      <point x="58" y="935"/>
      <point x="209" y="567"/>
      <point x="238" y="500" type="curve"/>
      <point x="239" y="495"/>
      <point x="240" y="488"/>
      <point x="240" y="481" type="curve" smooth="yes"/>
      <point x="240" y="474"/>
      <point x="239" y="469"/>
      <point x="237" y="464" type="curve" smooth="yes"/>
      <point x="215" y="414"/>
      <point x="74" y="97"/>
      <point x="54" y="46" type="curve" smooth="yes"/>
      <point x="52" y="40"/>
      <point x="51" y="33"/>
      <point x="51" y="26" type="curve" smooth="yes"/>
      <point x="51" y="13"/>
      <point x="54" y="0"/>
    </contour>
  </outline>
</glyph>
<glyph name="y" format="1">
  <advance width="662"/>
  <unicode hex="0079"/>
  <outline>
    <contour>
      <point x="247" y="-265" type="curve" smooth="yes"/>
      <point x="343" y="-263"/>
      <point x="389" y="-215"/>
      <point x="431" y="17" type="curve"/>
      <point x="609" y="944" type="line" smooth="yes"/>
      <point x="610" y="951"/>
      <point x="611" y="960"/>
      <point x="611" y="967" type="curve" smooth="yes"/>
      <point x="611" y="993"/>
      <point x="604" y="1006"/>
      <point x="594" y="1006" type="curve" smooth="yes"/>
      <point x="510" y="1006" type="line" smooth="yes"/>
      <point x="494" y="1006"/>
      <point x="482" y="998"/>
      <point x="476" y="955" type="curve"/>
      <point x="374" y="269" type="line" smooth="yes"/>
      <point x="374" y="262"/>
      <point x="372" y="258"/>
      <point x="370" y="258" type="curve" smooth="yes"/>
      <point x="368" y="258"/>
      <point x="367" y="264"/>
      <point x="365" y="270" type="curve" smooth="yes"/>
      <point x="235" y="958" type="line" smooth="yes"/>
      <point x="228" y="1000"/>
      <point x="214" y="1006"/>
      <point x="198" y="1006" type="curve" smooth="yes"/>
      <point x="77" y="1006" type="line" smooth="yes"/>
      <point x="69" y="1006"/>
      <point x="62" y="993"/>
      <point x="62" y="970" type="curve" smooth="yes"/>
      <point x="62" y="963"/>
      <point x="63" y="955"/>
      <point x="64" y="948" type="curve" smooth="yes"/>
      <point x="260" y="133" type="line"/>
      <point x="268" y="95"/>
      <point x="280" y="53"/>
      <point x="280" y="22" type="curve" smooth="yes"/>
      <point x="280" y="-76"/>
      <point x="251" y="-122"/>
      <point x="223" y="-122" type="curve" smooth="yes"/>
      <point x="206" y="-122"/>
      <point x="150" y="-104"/>
      <point x="144" y="-102" type="curve" smooth="yes"/>
      <point x="136" y="-101"/>
      <point x="119" y="-108"/>
      <point x="119" y="-176" type="curve" smooth="yes"/>
      <point x="119" y="-196"/>
      <point x="120" y="-214"/>
      <point x="127" y="-222" type="curve" smooth="yes"/>
      <point x="150" y="-256"/>
      <point x="205" y="-267"/>
    </contour>
    <contour>
      <point x="331" y="1006" type="move" name="top"/>
    </contour>
  </outline>
</glyph>
<glyph name="cent" format="1">
  <advance width="582"/>
  <unicode hex="00A2"/>
  <outline>
    <contour>
      <point x="396" y="-181" type="curve" smooth="yes"/>
      <point x="422" y="-181" type="line" smooth="yes"/>
      <point x="437" y="-181"/>
      <point x="446" y="-165"/>
      <point x="446" y="-127" type="curve" smooth="yes"/>
      <point x="446" y="-7" type="line"/>
      <point x="469" y="-4"/>
      <point x="496" y="-2"/>
      <point x="514" y="9" type="curve"/>
      <point x="518" y="12"/>
      <point x="524" y="20"/>
      <point x="524" y="28" type="curve"/>
      <point x="524" y="127" type="line"/>
      <point x="524" y="135"/>
      <point x="517" y="147"/>
      <point x="511" y="148" type="curve"/>
      <point x="492" y="142"/>
      <point x="469" y="136"/>
      <point x="446" y="133" type="curve"/>
      <point x="446" y="873" type="line"/>
      <point x="466" y="871"/>
      <point x="491" y="861"/>
      <point x="512" y="858" type="curve"/>
      <point x="517" y="858"/>
      <point x="524" y="865"/>
      <point x="523" y="874" type="curve"/>
      <point x="523" y="980" type="line"/>
      <point x="523" y="984"/>
      <point x="517" y="992"/>
      <point x="512" y="994" type="curve"/>
      <point x="493" y="1003"/>
      <point x="465" y="1007"/>
      <point x="446" y="1010" type="curve"/>
      <point x="446" y="1177" type="line" smooth="yes"/>
      <point x="446" y="1215"/>
      <point x="437" y="1230"/>
      <point x="422" y="1230" type="curve" smooth="yes"/>
      <point x="396" y="1230" type="line" smooth="yes"/>
      <point x="381" y="1230"/>
      <point x="372" y="1215"/>
      <point x="372" y="1177" type="curve" smooth="yes"/>
      <point x="372" y="1017" type="line"/>
      <point x="227" y="1016"/>
      <point x="81" y="932"/>
      <point x="81" y="509" type="curve" smooth="yes"/>
      <point x="81" y="67"/>
      <point x="227" y="-5"/>
      <point x="372" y="-11" type="curve"/>
      <point x="372" y="-127" type="line" smooth="yes"/>
      <point x="372" y="-165"/>
      <point x="381" y="-181"/>
    </contour>
    <contour>
      <point x="372" y="136" type="line"/>
      <point x="305" y="149"/>
      <point x="255" y="215"/>
      <point x="255" y="509" type="curve" smooth="yes"/>
      <point x="255" y="788"/>
      <point x="310" y="854"/>
      <point x="372" y="871" type="curve"/>
    </contour>
  </outline>
</glyph>
<glyph name="sterling" format="1">
  <advance width="963"/>
  <unicode hex="00A3"/>
  <outline>
    <contour>
      <point x="98" y="0" type="curve" smooth="yes"/>
      <point x="882" y="0" type="line" smooth="yes"/>
      <point x="911" y="0"/>
      <point x="924" y="7"/>
      <point x="924" y="37" type="curve" smooth="yes"/>
      <point x="924" y="103" type="line" smooth="yes"/>
      <point x="924" y="138"/>
      <point x="911" y="148"/>
      <point x="882" y="148" type="curve" smooth="yes"/>
      <point x="449" y="148" type="line" smooth="yes"/>
      <point x="417" y="148"/>
      <point x="415" y="156"/>
      <point x="415" y="194" type="curve" smooth="yes"/>
      <point x="415" y="667" type="line"/>
      <point x="701" y="667" type="line" smooth="yes"/>
      <point x="733" y="667"/>
      <point x="750" y="683"/>
      <point x="750" y="719" type="curve" smooth="yes"/>
      <point x="750" y="756" type="line" smooth="yes"/>
      <point x="750" y="792"/>
      <point x="733" y="808"/>
      <point x="701" y="808" type="curve" smooth="yes"/>
      <point x="417" y="808" type="line"/>
      <point x="417" y="918" type="line" smooth="yes"/>
      <point x="417" y="1216"/>
      <point x="448" y="1300"/>
      <point x="638" y="1303" type="curve" smooth="yes"/>
      <point x="769" y="1305"/>
      <point x="807" y="1260"/>
      <point x="861" y="1253" type="curve" smooth="yes"/>
      <point x="888" y="1247"/>
      <point x="900" y="1254"/>
      <point x="907" y="1282" type="curve"/>
      <point x="922" y="1351" type="line"/>
      <point x="930" y="1386"/>
      <point x="908" y="1396"/>
      <point x="876" y="1413" type="curve" smooth="yes"/>
      <point x="841" y="1431"/>
      <point x="753" y="1468"/>
      <point x="631" y="1467" type="curve" smooth="yes"/>
      <point x="249" y="1464"/>
      <point x="214" y="1226"/>
      <point x="214" y="958" type="curve" smooth="yes"/>
      <point x="214" y="923"/>
      <point x="215" y="838"/>
      <point x="215" y="808" type="curve"/>
      <point x="98" y="808" type="line" smooth="yes"/>
      <point x="66" y="808"/>
      <point x="49" y="792"/>
      <point x="49" y="756" type="curve" smooth="yes"/>
      <point x="49" y="719" type="line" smooth="yes"/>
      <point x="49" y="683"/>
      <point x="66" y="667"/>
      <point x="98" y="667" type="curve" smooth="yes"/>
      <point x="189" y="667" type="line" smooth="yes"/>
      <point x="212" y="667"/>
      <point x="219" y="651"/>
      <point x="219" y="624" type="curve" smooth="yes"/>
      <point x="219" y="171" type="line" smooth="yes"/>
      <point x="219" y="152"/>
      <point x="216" y="148"/>
      <point x="189" y="148" type="curve" smooth="yes"/>
      <point x="98" y="148" type="line" smooth="yes"/>
      <point x="58" y="148"/>
      <point x="49" y="130"/>
      <point x="49" y="94" type="curve" smooth="yes"/>
      <point x="49" y="51" type="line" smooth="yes"/>
      <point x="49" y="16"/>
      <point x="58" y="0"/>
    </contour>
  </outline>
</glyph>
<glyph name="cedilla" format="1">
  <advance width="551"/>
  <unicode hex="00B8"/>
  <outline>
    <contour>
      <point x="310" y="-591" type="curve" smooth="yes"/>
      <point x="431" y="-591"/>
      <point x="482" y="-512"/>
      <point x="482" y="-345" type="curve" smooth="yes"/>
      <point x="482" y="-234"/>
      <point x="426" y="-116"/>
      <point x="343" y="-116" type="curve" smooth="yes"/>
      <point x="279" y="-116" type="line" smooth="yes"/>
      <point x="270" y="-116"/>
      <point x="267" y="-123"/>
      <point x="267" y="-133" type="curve" smooth="yes"/>
      <point x="267" y="-193" type="line" smooth="yes"/>
      <point x="267" y="-204"/>
      <point x="279" y="-203"/>
      <point x="279" y="-203" type="curve"/>
      <point x="309" y="-203" type="line" smooth="yes"/>
      <point x="348" y="-203"/>
      <point x="382" y="-291"/>
      <point x="382" y="-367" type="curve" smooth="yes"/>
      <point x="382" y="-473"/>
      <point x="359" y="-511"/>
      <point x="316" y="-511" type="curve" smooth="yes"/>
      <point x="270" y="-511"/>
      <point x="249" y="-469"/>
      <point x="249" y="-418" type="curve" smooth="yes"/>
      <point x="249" y="-389"/>
      <point x="265" y="-333"/>
      <point x="230" y="-333" type="curve" smooth="yes"/>
      <point x="179" y="-333" type="line" smooth="yes"/>
      <point x="151" y="-333"/>
      <point x="149" y="-395"/>
      <point x="149" y="-424" type="curve" smooth="yes"/>
      <point x="149" y="-532"/>
      <point x="219" y="-591"/>
    </contour>
    <contour>
      <point x="315" y="0" type="move" name="_bottom"/>
    </contour>
  </outline>
</glyph>
<glyph name="AE" format="1">
  <advance width="1027"/>
  <unicode hex="00C6"/>
  <outline>
    <contour>
      <point x="67" y="0" type="curve" smooth="yes"/>
      <point x="67" y="0"/>
      <point x="203" y="0"/>
      <point x="204" y="0" type="curve" smooth="yes"/>
      <point x="219" y="0"/>
      <point x="229" y="6"/>
      <point x="235" y="42" type="curve"/>
      <point x="298" y="295" type="line"/>
      <point x="301" y="308"/>
      <point x="302" y="318"/>
      <point x="309" y="318" type="curve"/>
      <point x="526" y="318" type="line"/>
      <point x="526" y="42" type="line" smooth="yes"/>
      <point x="526" y="3"/>
      <point x="536" y="0"/>
      <point x="551" y="0" type="curve" smooth="yes"/>
      <point x="946" y="0" type="line" smooth="yes"/>
      <point x="961" y="0"/>
      <point x="972" y="3"/>
      <point x="972" y="40" type="curve" smooth="yes"/>
      <point x="972" y="119" type="line" smooth="yes"/>
      <point x="972" y="156"/>
      <point x="961" y="159"/>
      <point x="946" y="159" type="curve" smooth="yes"/>
      <point x="723" y="159" type="line"/>
      <point x="723" y="616" type="line"/>
      <point x="723" y="629"/>
      <point x="729" y="646"/>
      <point x="734" y="646" type="curve"/>
      <point x="889" y="646" type="line" smooth="yes"/>
      <point x="904" y="646"/>
      <point x="914" y="655"/>
      <point x="914" y="692" type="curve" smooth="yes"/>
      <point x="914" y="769" type="line" smooth="yes"/>
      <point x="914" y="806"/>
      <point x="904" y="815"/>
      <point x="889" y="815" type="curve" smooth="yes"/>
      <point x="733" y="815" type="line"/>
      <point x="729" y="815"/>
      <point x="723" y="829"/>
      <point x="723" y="842" type="curve"/>
      <point x="723" y="1246" type="line" smooth="yes"/>
      <point x="723" y="1266"/>
      <point x="728" y="1279"/>
      <point x="735" y="1279" type="curve" smooth="yes"/>
      <point x="929" y="1279" type="line" smooth="yes"/>
      <point x="944" y="1279"/>
      <point x="954" y="1282"/>
      <point x="954" y="1319" type="curve" smooth="yes"/>
      <point x="954" y="1398" type="line" smooth="yes"/>
      <point x="954" y="1435"/>
      <point x="944" y="1438"/>
      <point x="929" y="1438" type="curve" smooth="yes"/>
      <point x="428" y="1438" type="line" smooth="yes"/>
      <point x="411" y="1438"/>
      <point x="397" y="1429"/>
      <point x="389" y="1388" type="curve" smooth="yes"/>
      <point x="55" y="63" type="line"/>
      <point x="51" y="54"/>
      <point x="53" y="37"/>
      <point x="53" y="29" type="curve" smooth="yes"/>
      <point x="53" y="5"/>
      <point x="59" y="0"/>
    </contour>
    <contour>
      <point x="348" y="443" type="line"/>
      <point x="333" y="443"/>
      <point x="330" y="455"/>
      <point x="335" y="471" type="curve" smooth="yes"/>
      <point x="519" y="1258" type="line"/>
      <point x="519" y="1262"/>
      <point x="522" y="1268"/>
      <point x="523" y="1268" type="curve"/>
      <point x="525" y="1268"/>
      <point x="526" y="1261"/>
      <point x="526" y="1256" type="curve"/>
      <point x="526" y="465" type="line"/>
      <point x="526" y="457"/>
      <point x="524" y="443"/>
      <point x="520" y="443" type="curve"/>
    </contour>
    <contour>
      <point x="438" y="1438" type="move" name="top"/>
    </contour>
  </outline>
</glyph>
<glyph name="multiply" format="1">
  <advance width="801"/>
  <unicode hex="00D7"/>
  <outline>
    <contour>
      <point x="197" y="342" type="line"/>
      <point x="210" y="330"/>
      <point x="222" y="321"/>
      <point x="252" y="351" type="curve" smooth="yes"/>
      <point x="404" y="503" type="line"/>
      <point x="555" y="351" type="line" smooth="yes"/>
      <point x="585" y="322"/>
      <point x="598" y="330"/>
      <point x="610" y="342" type="curve" smooth="yes"/>
      <point x="661" y="393" type="line" smooth="yes"/>
      <point x="673" y="405"/>
      <point x="681" y="417"/>
      <point x="651" y="447" type="curve" smooth="yes"/>
      <point x="500" y="598" type="line"/>
      <point x="651" y="750" type="line" smooth="yes"/>
      <point x="681" y="780"/>
      <point x="672" y="792"/>
      <point x="660" y="805" type="curve"/>
      <point x="609" y="855" type="line" smooth="yes"/>
      <point x="597" y="868"/>
      <point x="585" y="875"/>
      <point x="555" y="845" type="curve" smooth="yes"/>
      <point x="404" y="694" type="line"/>
      <point x="252" y="846" type="line" smooth="yes"/>
      <point x="222" y="875"/>
      <point x="210" y="868"/>
      <point x="198" y="856" type="curve" smooth="yes"/>
      <point x="148" y="805" type="line" smooth="yes"/>
      <point x="135" y="793"/>
      <point x="127" y="780"/>
      <point x="157" y="750" type="curve" smooth="yes"/>
      <point x="308" y="598" type="line"/>
      <point x="157" y="447" type="line" smooth="yes"/>
      <point x="127" y="417"/>
      <point x="134" y="405"/>
      <point x="147" y="393" type="curve" smooth="yes"/>
    </contour>
  </outline>
</glyph>
<glyph name="ae" format="1">
  <advance width="1062"/>
  <unicode hex="00E6"/>
  <outline>
    <contour>
      <point x="282" y="-12" type="curve" smooth="yes"/>
      <point x="405" y="-12"/>
      <point x="489" y="75"/>
      <point x="534" y="223" type="curve"/>
      <point x="569" y="71"/>
      <point x="649" y="-11"/>
      <point x="749" y="-11" type="curve" smooth="yes"/>
      <point x="914" y="-11"/>
      <point x="970" y="103"/>
      <point x="970" y="242" type="curve" smooth="yes"/>
      <point x="970" y="262"/>
      <point x="967" y="288"/>
      <point x="966" y="294" type="curve" smooth="yes"/>
      <point x="964" y="304"/>
      <point x="959" y="310"/>
      <point x="947" y="310" type="curve" smooth="yes"/>
      <point x="878" y="310" type="line" smooth="yes"/>
      <point x="869" y="310"/>
      <point x="863" y="302"/>
      <point x="861" y="288" type="curve" smooth="yes"/>
      <point x="855" y="224"/>
      <point x="848" y="125"/>
      <point x="755" y="125" type="curve" smooth="yes"/>
      <point x="663" y="125"/>
      <point x="622" y="240"/>
      <point x="622" y="441" type="curve" smooth="yes"/>
      <point x="622" y="454"/>
      <point x="625" y="466"/>
      <point x="630" y="466" type="curve" smooth="yes"/>
      <point x="953" y="466" type="line" smooth="yes"/>
      <point x="976" y="466"/>
      <point x="978" y="537"/>
      <point x="978" y="550" type="curve"/>
      <point x="973" y="910"/>
      <point x="873" y="1018"/>
      <point x="737" y="1018" type="curve" smooth="yes"/>
      <point x="668" y="1018"/>
      <point x="590" y="968"/>
      <point x="555" y="855" type="curve"/>
      <point x="522" y="974"/>
      <point x="444" y="1017"/>
      <point x="356" y="1017" type="curve" smooth="yes"/>
      <point x="219" y="1017"/>
      <point x="131" y="925"/>
      <point x="105" y="818" type="curve" smooth="yes"/>
      <point x="99" y="792"/>
      <point x="99" y="762"/>
      <point x="108" y="757" type="curve" smooth="yes"/>
      <point x="109" y="753"/>
      <point x="205" y="726"/>
      <point x="213" y="724" type="curve" smooth="yes"/>
      <point x="222" y="723"/>
      <point x="231" y="728"/>
      <point x="237" y="750" type="curve" smooth="yes"/>
      <point x="252" y="815"/>
      <point x="282" y="882"/>
      <point x="356" y="882" type="curve" smooth="yes"/>
      <point x="443" y="882"/>
      <point x="458" y="793"/>
      <point x="458" y="662" type="curve" smooth="yes"/>
      <point x="458" y="615" type="line"/>
      <point x="434" y="581"/>
      <point x="78" y="624"/>
      <point x="78" y="238" type="curve" smooth="yes"/>
      <point x="78" y="73"/>
      <point x="151" y="-12"/>
    </contour>
    <contour>
      <point x="312" y="111" type="curve" smooth="yes"/>
      <point x="248" y="111"/>
      <point x="226" y="166"/>
      <point x="226" y="247" type="curve" smooth="yes"/>
      <point x="225" y="379"/>
      <point x="291" y="461"/>
      <point x="423" y="498" type="curve" smooth="yes"/>
      <point x="425" y="499"/>
      <point x="452" y="504"/>
      <point x="453" y="504" type="curve" smooth="yes"/>
      <point x="462" y="504"/>
      <point x="462" y="442"/>
      <point x="462" y="428" type="curve" smooth="yes"/>
      <point x="462" y="266"/>
      <point x="409" y="111"/>
    </contour>
    <contour>
      <point x="626" y="572" type="line"/>
      <point x="622" y="572"/>
      <point x="622" y="611"/>
      <point x="622" y="622" type="curve" smooth="yes"/>
      <point x="627" y="799"/>
      <point x="676" y="883"/>
      <point x="736" y="883" type="curve" smooth="yes"/>
      <point x="810" y="883"/>
      <point x="840" y="774"/>
      <point x="845" y="597" type="curve"/>
      <point x="845" y="588"/>
      <point x="845" y="572"/>
      <point x="842" y="572" type="curve"/>
    </contour>
    <contour>
      <point x="531" y="1006" type="move" name="top"/>
    </contour>
  </outline>
</glyph>
<glyph name="florin" format="1">
  <advance width="526"/>
  <unicode hex="0192"/>
  <outline>
    <contour>
      <point x="31" y="-139" type="curve" smooth="yes"/>
      <point x="167" y="-139"/>
      <point x="271" y="-35"/>
      <point x="295" y="260" type="curve" smooth="yes"/>
      <point x="334" y="766" type="line" smooth="yes"/>
      <point x="335" y="786"/>
      <point x="339" y="797"/>
      <point x="346" y="797" type="curve" smooth="yes"/>
      <point x="444" y="797" type="line" smooth="yes"/>
      <point x="459" y="797"/>
      <point x="468" y="804"/>
      <point x="472" y="839" type="curve" smooth="yes"/>
      <point x="478" y="904" type="line" smooth="yes"/>
      <point x="481" y="936"/>
      <point x="476" y="947"/>
      <point x="460" y="947" type="curve" smooth="yes"/>
      <point x="350" y="947" type="line" smooth="yes"/>
      <point x="349" y="947"/>
      <point x="348" y="950"/>
      <point x="348" y="953" type="curve" smooth="yes"/>
      <point x="360" y="1065" type="line"/>
      <point x="376" y="1226"/>
      <point x="409" y="1272"/>
      <point x="478" y="1272" type="curve" smooth="yes"/>
      <point x="505" y="1272" type="line" smooth="yes"/>
      <point x="518" y="1272"/>
      <point x="521" y="1291"/>
      <point x="523" y="1325" type="curve" smooth="yes"/>
      <point x="523" y="1331"/>
      <point x="524" y="1383"/>
      <point x="522" y="1383" type="curve" smooth="yes"/>
      <point x="522" y="1393"/>
      <point x="493" y="1407"/>
      <point x="448" y="1407" type="curve" smooth="yes"/>
      <point x="312" y="1407"/>
      <point x="219" y="1333"/>
      <point x="189" y="1008" type="curve" smooth="yes"/>
      <point x="187" y="986"/>
      <point x="185" y="947"/>
      <point x="178" y="947" type="curve" smooth="yes"/>
      <point x="102" y="947" type="line" smooth="yes"/>
      <point x="87" y="947"/>
      <point x="78" y="934"/>
      <point x="74" y="900" type="curve" smooth="yes"/>
      <point x="68" y="839" type="line" smooth="yes"/>
      <point x="64" y="804"/>
      <point x="71" y="797"/>
      <point x="86" y="797" type="curve" smooth="yes"/>
      <point x="162" y="797" type="line" smooth="yes"/>
      <point x="169" y="797"/>
      <point x="167" y="786"/>
      <point x="166" y="766" type="curve" smooth="yes"/>
      <point x="120" y="200" type="line" smooth="yes"/>
      <point x="106" y="33"/>
      <point x="71" y="-7"/>
      <point x="1" y="-7" type="curve" smooth="yes"/>
      <point x="-15" y="-7" type="line" smooth="yes"/>
      <point x="-29" y="-7"/>
      <point x="-30" y="-25"/>
      <point x="-33" y="-59" type="curve" smooth="yes"/>
      <point x="-33" y="-64"/>
      <point x="-36" y="-111"/>
      <point x="-34" y="-111" type="curve" smooth="yes"/>
      <point x="-33" y="-144"/>
      <point x="-12" y="-139"/>
    </contour>
  </outline>
</glyph>
<glyph name="circumflex" format="1">
  <advance width="314"/>
  <unicode hex="02C6"/>
  <outline>
    <contour>
      <point x="62" y="1225" type="curve" smooth="yes"/>
      <point x="76" y="1225"/>
      <point x="87" y="1241"/>
      <point x="98" y="1266" type="curve" smooth="yes"/>
      <point x="145" y="1384" type="line" smooth="yes"/>
      <point x="148" y="1395"/>
      <point x="152" y="1401"/>
      <point x="155" y="1401" type="curve" smooth="yes"/>
      <point x="159" y="1401"/>
      <point x="162" y="1395"/>
      <point x="166" y="1384" type="curve" smooth="yes"/>
      <point x="213" y="1266" type="line" smooth="yes"/>
      <point x="223" y="1241"/>
      <point x="235" y="1225"/>
      <point x="250" y="1225" type="curve" smooth="yes"/>
      <point x="256" y="1225"/>
      <point x="281" y="1228"/>
      <point x="281" y="1233" type="curve" smooth="yes"/>
      <point x="302" y="1234"/>
      <point x="296" y="1266"/>
      <point x="292" y="1287" type="curve" smooth="yes"/>
      <point x="220" y="1486" type="line" smooth="yes"/>
      <point x="204" y="1535"/>
      <point x="187" y="1561"/>
      <point x="168" y="1561" type="curve" smooth="yes"/>
      <point x="143" y="1561" type="line" smooth="yes"/>
      <point x="124" y="1561"/>
      <point x="107" y="1535"/>
      <point x="91" y="1486" type="curve" smooth="yes"/>
      <point x="19" y="1287" type="line" smooth="yes"/>
      <point x="14" y="1267"/>
      <point x="11" y="1234"/>
      <point x="31" y="1233" type="curve" smooth="yes"/>
      <point x="31" y="1228"/>
      <point x="56" y="1225"/>
    </contour>
    <contour>
      <point x="155" y="1006" type="move" name="_top"/>
    </contour>
  </outline>
</glyph>
<glyph name="caron" format="1">
  <advance width="314"/>
  <unicode hex="02C7"/>
  <outline>
    <contour>
      <point x="143" y="1225" type="curve" smooth="yes"/>
      <point x="168" y="1225" type="line" smooth="yes"/>
      <point x="187" y="1225"/>
      <point x="204" y="1251"/>
      <point x="220" y="1301" type="curve" smooth="yes"/>
      <point x="292" y="1499" type="line" smooth="yes"/>
      <point x="297" y="1519"/>
      <point x="300" y="1552"/>
      <point x="280" y="1553" type="curve" smooth="yes"/>
      <point x="280" y="1558"/>
      <point x="254" y="1561"/>
      <point x="249" y="1561" type="curve" smooth="yes"/>
      <point x="235" y="1561"/>
      <point x="223" y="1546"/>
      <point x="213" y="1521" type="curve" smooth="yes"/>
      <point x="166" y="1402" type="line" smooth="yes"/>
      <point x="162" y="1391"/>
      <point x="159" y="1386"/>
      <point x="156" y="1386" type="curve" smooth="yes"/>
      <point x="152" y="1386"/>
      <point x="148" y="1391"/>
      <point x="145" y="1402" type="curve" smooth="yes"/>
      <point x="98" y="1521" type="line" smooth="yes"/>
      <point x="87" y="1546"/>
      <point x="76" y="1561"/>
      <point x="61" y="1561" type="curve" smooth="yes"/>
      <point x="55" y="1561"/>
      <point x="30" y="1558"/>
      <point x="30" y="1553" type="curve" smooth="yes"/>
      <point x="9" y="1552"/>
      <point x="14" y="1520"/>
      <point x="19" y="1499" type="curve" smooth="yes"/>
      <point x="91" y="1301" type="line" smooth="yes"/>
      <point x="107" y="1251"/>
      <point x="124" y="1225"/>
    </contour>
    <contour>
      <point x="155" y="1006" type="move" name="_top"/>
    </contour>
  </outline>
</glyph>
<glyph name="tilde" format="1">
  <advance width="799"/>
  <unicode hex="02DC"/>
  <outline>
    <contour>
      <point x="572" y="804" type="curve" smooth="yes"/>
      <point x="589" y="804"/>
      <point x="608" y="820"/>
      <point x="608" y="840" type="curve" smooth="yes"/>
      <point x="608" y="851"/>
      <point x="599" y="868"/>
      <point x="589" y="883" type="curve" smooth="yes"/>
      <point x="560" y="928"/>
      <point x="528" y="977"/>
      <point x="473" y="977" type="curve" smooth="yes"/>
      <point x="395" y="977"/>
      <point x="320" y="896"/>
      <point x="267" y="896" type="curve" smooth="yes"/>
      <point x="247" y="896"/>
      <point x="231" y="914"/>
      <point x="219" y="939" type="curve"/>
      <point x="210" y="954"/>
      <point x="197" y="970"/>
      <point x="177" y="970" type="curve" smooth="yes"/>
      <point x="159" y="970"/>
      <point x="139" y="953"/>
      <point x="139" y="932" type="curve" smooth="yes"/>
      <point x="139" y="922"/>
      <point x="148" y="904"/>
      <point x="158" y="890" type="curve" smooth="yes"/>
      <point x="182" y="851"/>
      <point x="213" y="797"/>
      <point x="277" y="797" type="curve" smooth="yes"/>
      <point x="371" y="797"/>
      <point x="433" y="878"/>
      <point x="482" y="878" type="curve" smooth="yes"/>
      <point x="503" y="878"/>
      <point x="515" y="855"/>
      <point x="529" y="834" type="curve" smooth="yes"/>
      <point x="539" y="820"/>
      <point x="552" y="804"/>
    </contour>
    <contour>
      <point x="379" y="1006" type="move" name="_top"/>
    </contour>
  </outline>
</glyph>
<glyph name="Delta" format="1">
  <advance width="822"/>
  <unicode hex="0394"/>
  <outline>
    <contour>
      <point x="100" y="247" type="curve" smooth="yes"/>
      <point x="724" y="247" type="line" smooth="yes"/>
      <point x="734" y="247"/>
      <point x="741" y="252"/>
      <point x="741" y="276" type="curve" smooth="yes"/>
      <point x="741" y="284"/>
      <point x="738" y="301"/>
      <point x="737" y="311" type="curve" smooth="yes"/>
      <point x="544" y="1350" type="line" smooth="yes"/>
      <point x="537" y="1391"/>
      <point x="524" y="1398"/>
      <point x="508" y="1400" type="curve"/>
      <point x="317" y="1400" type="line"/>
      <point x="301" y="1398"/>
      <point x="288" y="1391"/>
      <point x="281" y="1350" type="curve" smooth="yes"/>
      <point x="85" y="311" type="line" smooth="yes"/>
      <point x="84" y="301"/>
      <point x="84" y="284"/>
      <point x="84" y="276" type="curve" smooth="yes"/>
      <point x="84" y="252"/>
      <point x="91" y="247"/>
    </contour>
    <contour>
      <point x="308" y="405" type="line"/>
      <point x="296" y="405"/>
      <point x="293" y="414"/>
      <point x="293" y="424" type="curve" smooth="yes"/>
      <point x="293" y="426"/>
      <point x="293" y="429"/>
      <point x="294" y="433" type="curve" smooth="yes"/>
      <point x="408" y="1179" type="line"/>
      <point x="408" y="1183"/>
      <point x="410" y="1186"/>
      <point x="412" y="1186" type="curve"/>
      <point x="413" y="1186"/>
      <point x="414" y="1184"/>
      <point x="415" y="1179" type="curve" smooth="yes"/>
      <point x="517" y="431" type="line"/>
      <point x="518" y="429"/>
      <point x="518" y="426"/>
      <point x="518" y="423" type="curve" smooth="yes"/>
      <point x="518" y="414"/>
      <point x="516" y="405"/>
      <point x="512" y="405" type="curve" smooth="yes"/>
    </contour>
  </outline>
</glyph>
<glyph name="endash" format="1">
  <advance width="1024"/>
  <unicode hex="2013"/>
  <outline>
    <contour>
      <point x="92" y="511" type="line"/>
      <point x="928" y="511" type="line"/>
      <point x="928" y="697" type="line"/>
      <point x="92" y="697" type="line"/>
    </contour>
  </outline>
</glyph>
<glyph name="emdash" format="1">
  <advance width="2048"/>
  <unicode hex="2014"/>
  <outline>
    <contour>
      <point x="92" y="511" type="line"/>
      <point x="1952" y="511" type="line"/>
      <point x="1952" y="697" type="line"/>
      <point x="92" y="697" type="line"/>
    </contour>
  </outline>
</glyph>
<glyph name="guilsinglleft" format="1">
  <advance width="524"/>
  <unicode hex="2039"/>
  <outline>
    <contour>
      <point x="396" y="218" type="curve" smooth="yes"/>
      <point x="399" y="216"/>
      <point x="402" y="217"/>
      <point x="404" y="226" type="curve" smooth="yes"/>
      <point x="408" y="226"/>
      <point x="413" y="248"/>
      <point x="413" y="265" type="curve" smooth="yes"/>
      <point x="413" y="280"/>
      <point x="412" y="383"/>
      <point x="405" y="390" type="curve" smooth="yes"/>
      <point x="405" y="420"/>
      <point x="316" y="530"/>
      <point x="306" y="543" type="curve" smooth="yes"/>
      <point x="305" y="544"/>
      <point x="193" y="648"/>
      <point x="193" y="650" type="curve" smooth="yes"/>
      <point x="191" y="653"/>
      <point x="190" y="660"/>
      <point x="191" y="664" type="curve" smooth="yes"/>
      <point x="191" y="668"/>
      <point x="275" y="763"/>
      <point x="277" y="764" type="curve" smooth="yes"/>
      <point x="284" y="772"/>
      <point x="398" y="873"/>
      <point x="398" y="888" type="curve" smooth="yes"/>
      <point x="407" y="901"/>
      <point x="413" y="934"/>
      <point x="413" y="964" type="curve" smooth="yes"/>
      <point x="413" y="974"/>
      <point x="412" y="1071"/>
      <point x="410" y="1071" type="curve" smooth="yes"/>
      <point x="408" y="1088"/>
      <point x="402" y="1100"/>
      <point x="395" y="1098" type="curve" smooth="yes"/>
      <point x="393" y="1098"/>
      <point x="296" y="995"/>
      <point x="294" y="993" type="curve" smooth="yes"/>
      <point x="285" y="984"/>
      <point x="105" y="803"/>
      <point x="105" y="795" type="curve" smooth="yes"/>
      <point x="92" y="783"/>
      <point x="90" y="733"/>
      <point x="90" y="702" type="curve" smooth="yes"/>
      <point x="90" y="695"/>
      <point x="91" y="583"/>
      <point x="98" y="575" type="curve" smooth="yes"/>
      <point x="98" y="545"/>
      <point x="198" y="420"/>
      <point x="210" y="408" type="curve" smooth="yes"/>
      <point x="212" y="406"/>
      <point x="394" y="218"/>
    </contour>
  </outline>
</glyph>
<glyph name="fraction" format="1">
  <advance width="569"/>
  <unicode hex="2044"/>
  <outline>
    <contour>
      <point x="86" y="-205" type="curve" smooth="yes"/>
      <point x="176" y="-206" type="line" smooth="yes"/>
      <point x="183" y="-206"/>
      <point x="191" y="-193"/>
      <point x="194" y="-173" type="curve" smooth="yes"/>
      <point x="495" y="1614" type="line" smooth="yes"/>
      <point x="498" y="1629"/>
      <point x="494" y="1647"/>
      <point x="488" y="1647" type="curve" smooth="yes"/>
      <point x="399" y="1647" type="line" smooth="yes"/>
      <point x="392" y="1647"/>
      <point x="384" y="1634"/>
      <point x="381" y="1614" type="curve" smooth="yes"/>
      <point x="79" y="-172" type="line" smooth="yes"/>
      <point x="77" y="-187"/>
      <point x="81" y="-205"/>
    </contour>
  </outline>
</glyph>
